<svg xmlns="http://www.w3.org/2000/svg" width="1100" height="620" viewBox="0 0 1100 620">
  <rect width="1100" height="620" fill="#10110e"/>
  <style>
    .title{font-family:"SFMono-Regular","Menlo","Consolas",monospace;font-size:34px;font-weight:700;fill:#f3efd8}
    .label{font-family:"SFMono-Regular","Menlo","Consolas",monospace;font-size:18px;font-weight:700;fill:#f3efd8}
    .text{font-family:"SFMono-Regular","Menlo","Consolas",monospace;font-size:14px;fill:#a7aa98}
    .cmd{font-family:"SFMono-Regular","Menlo","Consolas",monospace;font-size:13px;fill:#d7ff63}
    .box{fill:#181a16;stroke:#34382d;stroke-width:2;rx:10}
    .accent{stroke:#d7ff63;stroke-width:2.4;fill:none;marker-end:url(#arrow)}
    .soft{stroke:#7fc7ff;stroke-width:2;fill:none;marker-end:url(#arrowBlue)}
  </style>
  <defs>
    <marker id="arrow" markerWidth="10" markerHeight="10" refX="8" refY="3" orient="auto">
      <path d="M0,0 L0,6 L9,3 z" fill="#d7ff63"/>
    </marker>
    <marker id="arrowBlue" markerWidth="10" markerHeight="10" refX="8" refY="3" orient="auto">
      <path d="M0,0 L0,6 L9,3 z" fill="#7fc7ff"/>
    </marker>
  </defs>

  <text x="42" y="58" class="title">Tools Manager Workflow</text>
  <text x="44" y="86" class="text">One local source of truth for skills, skill presets, and MCP configuration.</text>

  <rect class="box" x="42" y="135" width="250" height="130"/>
  <text x="66" y="168" class="label">Local Agents</text>
  <text x="66" y="196" class="text">~/.codex/skills</text>
  <text x="66" y="218" class="text">~/.cursor/skills</text>
  <text x="66" y="240" class="text">~/.claude/skills</text>

  <rect class="box" x="425" y="125" width="260" height="150"/>
  <text x="449" y="158" class="label">Tools Manager</text>
  <text x="449" y="187" class="text">~/.tools-manager/skills</text>
  <text x="449" y="209" class="text">tools-manager.db</text>
  <text x="449" y="231" class="text">config.toml</text>
  <text x="449" y="254" class="cmd">tm skills add --tool all</text>

  <rect class="box" x="808" y="135" width="250" height="130"/>
  <text x="832" y="168" class="label">Skill Sync</text>
  <text x="832" y="197" class="text">Default / Work presets</text>
  <text x="832" y="219" class="text">agent skill directories</text>
  <text x="832" y="246" class="cmd">tm skills sync</text>

  <path class="accent" d="M292 200 C345 200 365 200 424 200"/>
  <path class="accent" d="M686 200 C740 200 760 200 807 200"/>

  <rect class="box" x="42" y="365" width="250" height="130"/>
  <text x="66" y="398" class="label">Agent MCP Config</text>
  <text x="66" y="426" class="text">~/.codex/config.toml</text>
  <text x="66" y="448" class="text">~/.cursor/mcp.json</text>
  <text x="66" y="470" class="text">~/.claude/mcp.json</text>

  <rect class="box" x="425" y="355" width="260" height="150"/>
  <text x="449" y="388" class="label">MCP Registry</text>
  <text x="449" y="417" class="text">name / command / args</text>
  <text x="449" y="439" class="text">env / target tools</text>
  <text x="449" y="462" class="cmd">tm mcp add --tool all</text>
  <text x="449" y="484" class="cmd">tm mcp list</text>

  <rect class="box" x="808" y="365" width="250" height="130"/>
  <text x="832" y="398" class="label">Config Sync</text>
  <text x="832" y="427" class="text">writes TOML / JSON</text>
  <text x="832" y="449" class="text">creates timestamp backups</text>
  <text x="832" y="476" class="cmd">tm mcp sync</text>

  <path class="soft" d="M292 430 C345 430 365 430 424 430"/>
  <path class="soft" d="M686 430 C740 430 760 430 807 430"/>

  <text x="440" y="565" class="cmd">tm</text>
  <text x="474" y="565" class="text">opens the interactive command menu for all of these flows.</text>
</svg>
